<svg xmlns="http://www.w3.org/2000/svg" width="115" height="120.163" viewBox="0 0 115 120.163">
  <g id="mobile-app" transform="translate(-11)">
    <circle id="Ellipse_22" data-name="Ellipse 22" cx="57.5" cy="57.5" r="57.5" transform="translate(11 5.163)" fill="#5dc1d8"/>
    <path id="Path_202" data-name="Path 202" d="M127.807,94.48a.94.94,0,0,1,.939-.939h1.025a.235.235,0,0,0,.166-.4L118.786,81.99a3.3,3.3,0,0,1,0-4.646l.466-.466a3.3,3.3,0,0,1,4.646,0l2.923,2.923a.235.235,0,0,0,.166.069.232.232,0,0,0,.09-.018.234.234,0,0,0,.145-.217V55.8a3.289,3.289,0,0,1,3.286-3.286h.1a3.277,3.277,0,0,1,2.48,1.138V2.347A2.354,2.354,0,0,0,130.738,0H81.048A2.354,2.354,0,0,0,78.7,2.347v91.4A2.354,2.354,0,0,0,81.048,96.1h46.759V94.48h0Z" transform="translate(-51.812)" fill="#2e4c89"/>
    <path id="Path_203" data-name="Path 203" d="M128.589,108.652a3.262,3.262,0,0,1,.958-2.323l.466-.466a3.3,3.3,0,0,1,4.646,0l2.923,2.923a.235.235,0,0,0,.166.069.232.232,0,0,0,.09-.018.234.234,0,0,0,.145-.217V84.782a3.289,3.289,0,0,1,2.564-3.2V39.112a1.242,1.242,0,0,0-1.238-1.238H94a1.242,1.242,0,0,0-1.238,1.238v69.682A1.242,1.242,0,0,0,94,110.032h34.892A3.285,3.285,0,0,1,128.589,108.652Z" transform="translate(-62.574 -28.985)" fill="#c3ddf4"/>
    <path id="Path_204" data-name="Path 204" d="M97.42,108.795V39.112a1.242,1.242,0,0,1,1.238-1.238H94a1.242,1.242,0,0,0-1.238,1.238v69.682A1.242,1.242,0,0,0,94,110.032h4.657A1.241,1.241,0,0,1,97.42,108.795Z" transform="translate(-62.574 -28.985)" fill="#aec1ed"/>
    <g id="Group_757" data-name="Group 757" transform="translate(42.64 2.442)">
      <circle id="Ellipse_23" data-name="Ellipse 23" cx="4.356" cy="4.356" r="4.356" transform="translate(7.084 80.982)" fill="#1a2b63"/>
      <path id="Path_205" data-name="Path 205" d="M185.229,14.862H171.765a1.76,1.76,0,1,1,0-3.52h13.464a1.76,1.76,0,1,1,0,3.52Z" transform="translate(-164.328 -11.122)" fill="#1a2b63"/>
      <circle id="Ellipse_24" data-name="Ellipse 24" cx="1.98" cy="1.98" r="1.98" fill="#1a2b63"/>
    </g>
    <path id="Path_206" data-name="Path 206" d="M139.309,37.874H94a1.242,1.242,0,0,0-1.238,1.238v5.5h47.785v-5.5A1.243,1.243,0,0,0,139.309,37.874Z" transform="translate(-62.574 -28.985)" fill="#ff9518"/>
    <path id="Path_207" data-name="Path 207" d="M98.658,37.874H94a1.242,1.242,0,0,0-1.238,1.238v5.5H97.42v-5.5A1.242,1.242,0,0,1,98.658,37.874Z" transform="translate(-62.574 -28.985)" fill="#ef8318"/>
    <path id="Path_208" data-name="Path 208" d="M148.826,178.344a2.354,2.354,0,0,1-2.347,2.347H110.712a2.354,2.354,0,0,1-2.347-2.347v-11.4a2.354,2.354,0,0,1,2.347-2.347h35.767a2.354,2.354,0,0,1,2.347,2.347Z" transform="translate(-74.514 -125.963)" fill="#445ea0"/>
    <path id="Path_209" data-name="Path 209" d="M128.589,269.923a3.262,3.262,0,0,1,.958-2.323l.466-.466a3.3,3.3,0,0,1,4.646,0l2.923,2.923a.235.235,0,0,0,.166.069.232.232,0,0,0,.09-.018.235.235,0,0,0,.145-.217V248.6H92.763v21.464A1.242,1.242,0,0,0,94,271.3h34.892A3.287,3.287,0,0,1,128.589,269.923Z" transform="translate(-62.574 -190.256)" fill="#eef6ff"/>
    <path id="Path_210" data-name="Path 210" d="M97.42,270.065V248.6H92.763v21.464A1.242,1.242,0,0,0,94,271.3h4.657A1.242,1.242,0,0,1,97.42,270.065Z" transform="translate(-62.574 -190.256)" fill="#d9eafc"/>
    <g id="Group_758" data-name="Group 758" transform="translate(37.328 61.445)">
      <path id="Path_211" data-name="Path 211" d="M143.66,265.328H124.94a1.76,1.76,0,1,1,0-3.52h18.72a1.76,1.76,0,1,1,0,3.52Z" transform="translate(-123.18 -261.808)" fill="#5dc1d8"/>
      <path id="Path_212" data-name="Path 212" d="M143.66,290.193H124.94a1.76,1.76,0,1,1,0-3.52h18.72a1.76,1.76,0,1,1,0,3.52Z" transform="translate(-123.18 -280.837)" fill="#5dc1d8"/>
      <path id="Path_213" data-name="Path 213" d="M134.338,315.057h-9.4a1.76,1.76,0,1,1,0-3.52h9.4a1.76,1.76,0,1,1,0,3.52Z" transform="translate(-123.18 -299.866)" fill="#5dc1d8"/>
    </g>
    <path id="Path_214" data-name="Path 214" d="M243.12,280.7a1.76,1.76,0,0,1-1.421-2.8l2.3-3.161-2.3-3.161a1.76,1.76,0,1,1,2.845-2.073l3.058,4.2a1.76,1.76,0,0,1,0,2.073l-3.059,4.2A1.759,1.759,0,0,1,243.12,280.7Z" transform="translate(-176.297 -205.705)" fill="#ff9518"/>
    <path id="Path_215" data-name="Path 215" d="M297.073,439.522v16.2a57.187,57.187,0,0,0,23.4-9.629v-6.573Z" transform="translate(-218.933 -336.369)" fill="#ef8318"/>
    <path id="Path_216" data-name="Path 216" d="M297.073,439.522v16.2q2.363-.4,4.657-.989V439.522Z" transform="translate(-218.933 -336.369)" fill="#db722c"/>
    <path id="Path_217" data-name="Path 217" d="M280.581,264.008V239.616a3.531,3.531,0,0,0-3.52-3.52h-.1a3.531,3.531,0,0,0-3.223,2.113,3.531,3.531,0,0,0-3.223-2.113h-.1a3.531,3.531,0,0,0-3.223,2.113,3.531,3.531,0,0,0-3.223-2.113h-.1a3.524,3.524,0,0,0-2.926,1.57v-11.4a3.531,3.531,0,0,0-3.52-3.52h-.1a3.531,3.531,0,0,0-3.52,3.52V250.1l-2.923-2.923a3.531,3.531,0,0,0-4.979,0l-.466.466a3.531,3.531,0,0,0,0,4.979l11.385,11.385Z" transform="translate(-178.635 -170.467)" fill="#ffe2b8"/>
    <path id="Path_218" data-name="Path 218" d="M261.484,340.345,250.1,328.96a3.531,3.531,0,0,1,0-4.979l.466-.466c.052-.052.107-.1.161-.145a3.529,3.529,0,0,0-4.818.145l-.466.466a3.531,3.531,0,0,0,0,4.979l11.385,11.385Z" transform="translate(-178.634 -246.804)" fill="#ffc987"/>
    <path id="Path_219" data-name="Path 219" d="M315.093,406.476a1.177,1.177,0,0,1-1.173,1.173H288.107a1.177,1.177,0,0,1-1.173-1.173v-7.734a1.177,1.177,0,0,1,1.173-1.173H313.92a1.177,1.177,0,0,1,1.173,1.173Z" transform="translate(-211.174 -304.261)" fill="#ff9518"/>
    <path id="Path_220" data-name="Path 220" d="M291.59,406.476v-7.734a1.177,1.177,0,0,1,1.173-1.173h-4.657a1.177,1.177,0,0,0-1.173,1.173v7.734a1.177,1.177,0,0,0,1.173,1.173h4.657A1.177,1.177,0,0,1,291.59,406.476Z" transform="translate(-211.173 -304.261)" fill="#ef8318"/>
    <circle id="Ellipse_25" data-name="Ellipse 25" cx="2.181" cy="2.181" r="2.181" transform="translate(96.583 96.167)" fill="#db722c"/>
    <path id="Path_221" data-name="Path 221" d="M361.013,156.826A1.177,1.177,0,0,1,359.839,158H326.093a1.177,1.177,0,0,1-1.173-1.173V132.479a1.177,1.177,0,0,1,1.173-1.173h33.746a1.177,1.177,0,0,1,1.173,1.173Z" transform="translate(-240.245 -100.489)" fill="#fe3745"/>
    <path id="Path_222" data-name="Path 222" d="M376.7,160.565c0-1.291.915-1.819,2.032-1.173l9.3,5.37a1.24,1.24,0,0,1,0,2.347l-9.3,5.371c-1.118.645-2.032.117-2.032-1.173Z" transform="translate(-279.871 -121.773)" fill="#fff"/>
    <path id="Path_223" data-name="Path 223" d="M358.188,56.431a5.277,5.277,0,0,1-5.091-6.675h-27a1.177,1.177,0,0,0-1.173,1.173V64.85a1.177,1.177,0,0,0,1.173,1.173h33.746a1.177,1.177,0,0,0,1.173-1.173V55.609A5.246,5.246,0,0,1,358.188,56.431Z" transform="translate(-240.245 -38.079)" fill="#ffaf10"/>
    <path id="Path_224" data-name="Path 224" d="M329.577,156.826V132.479a1.177,1.177,0,0,1,1.173-1.173h-4.657a1.177,1.177,0,0,0-1.173,1.173v24.346A1.177,1.177,0,0,0,326.093,158h4.657A1.177,1.177,0,0,1,329.577,156.826Z" transform="translate(-240.245 -100.489)" fill="#b7092b"/>
    <path id="Path_225" data-name="Path 225" d="M329.577,64.85V50.929a1.177,1.177,0,0,1,1.173-1.173h-4.657a1.177,1.177,0,0,0-1.173,1.173V64.85a1.177,1.177,0,0,0,1.173,1.173h4.657A1.177,1.177,0,0,1,329.577,64.85Z" transform="translate(-240.245 -38.079)" fill="#ef9614"/>
    <circle id="Ellipse_26" data-name="Ellipse 26" cx="5.514" cy="5.514" r="5.514" transform="translate(112.429 7.559)" fill="#b7092b"/>
    <path id="Path_226" data-name="Path 226" d="M460.833,48.893a1.173,1.173,0,0,1-1.173-1.173V45.168a1.174,1.174,0,0,1,.338-2.3h.836a1.173,1.173,0,0,1,1.173,1.173V47.72A1.173,1.173,0,0,1,460.833,48.893Z" transform="translate(-342.722 -32.809)" fill="#eef6ff"/>
    <g id="Group_759" data-name="Group 759" transform="translate(88.595 15.307)">
      <path id="Path_227" data-name="Path 227" d="M360.185,68.743h-16.8a1.76,1.76,0,1,1,0-3.52h16.8a1.76,1.76,0,1,1,0,3.52Z" transform="translate(-341.622 -65.223)" fill="#db722c"/>
      <path id="Path_228" data-name="Path 228" d="M365.265,91.934H343.382a1.76,1.76,0,0,1,0-3.52h21.883a1.76,1.76,0,0,1,0,3.52Z" transform="translate(-341.622 -82.971)" fill="#db722c"/>
    </g>
    <circle id="Ellipse_27" data-name="Ellipse 27" cx="8.761" cy="8.761" r="8.761" transform="translate(45.319 18.463)" fill="#ef8318"/>
    <circle id="Ellipse_28" data-name="Ellipse 28" cx="7.041" cy="7.041" r="7.041" transform="translate(47.04 20.184)" fill="#ff9518"/>
    <path id="Path_229" data-name="Path 229" d="M184.625,101.291h-1.564v-.376a3.481,3.481,0,1,0-2.39,0v.376h-1.564a1.139,1.139,0,0,0-1.135,1.136v2.73a7.039,7.039,0,0,0,7.788,0v-2.731A1.138,1.138,0,0,0,184.625,101.291Z" transform="translate(-127.785 -72.067)" fill="#fff"/>
    <path id="Path_230" data-name="Path 230" d="M131.153,187.369a1.177,1.177,0,0,1-1.173,1.173h-6.806A1.177,1.177,0,0,1,122,187.369v-6.806a1.177,1.177,0,0,1,1.173-1.173h6.806a1.177,1.177,0,0,1,1.173,1.173Z" transform="translate(-84.949 -137.288)" fill="#ff9518"/>
    <path id="Path_231" data-name="Path 231" d="M124.936,187.369v-6.806a1.177,1.177,0,0,1,1.173-1.173h-2.936A1.177,1.177,0,0,0,122,180.562v6.806a1.177,1.177,0,0,0,1.173,1.173h2.936A1.177,1.177,0,0,1,124.936,187.369Z" transform="translate(-84.949 -137.288)" fill="#ef8318"/>
    <g id="Group_760" data-name="Group 760" transform="translate(48.121 44.918)">
      <path id="Path_232" data-name="Path 232" d="M182.9,193.149a2.876,2.876,0,0,1,.6-1.76H170.926a1.76,1.76,0,1,0,0,3.52H183.5A2.877,2.877,0,0,1,182.9,193.149Z" transform="translate(-169.166 -191.389)" fill="#1a2b63"/>
      <path id="Path_233" data-name="Path 233" d="M252.639,191.389h-2.871a2.874,2.874,0,0,1,0,3.52h2.871a1.76,1.76,0,0,0,0-3.52Z" transform="translate(-230.851 -191.389)" fill="#1a2b63"/>
    </g>
    <circle id="Ellipse_29" data-name="Ellipse 29" cx="3.129" cy="3.129" r="3.129" transform="translate(61.616 43.549)" fill="#ff9518"/>
  </g>
</svg>
