<svg width="1280" height="1200" viewBox="0 0 1280 1200" fill="none" xmlns="http://www.w3.org/2000/svg">
<path d="M1254.3 834.899C1271.5 746.888 1142.5 630 1145.3 577.084C1148.1 524.168 1203.93 510.951 1289.15 472.692C1388.49 428.091 1379.8 495.132 1445.3 539.536L1400.8 971.46C1344.8 962.611 1237.1 922.911 1254.3 834.899Z" fill="#EFB440"/>
<path d="M1242 840.896C1259.2 752.885 1196 609.5 1200 575.189C1204 540.877 1208.93 532.954 1294.15 494.695C1393.49 450.093 1384.8 517.135 1450.3 561.539L1405.8 993.463C1349.8 984.614 1224.8 928.907 1242 840.896Z" fill="#6A8AFC"/>
<rect x="1175.68" y="1137.18" width="71" height="71" transform="rotate(-30 1175.68 1137.18)" stroke="#EFB440"/>
<rect x="1118.68" y="43.183" width="71" height="71" transform="rotate(-30 1118.68 43.183)" stroke="#EFB440"/>
<path d="M67.2202 736.25L94.5 689L121.78 736.25H67.2202Z" stroke="#EFB440"/>
<path d="M35.1159 28.6458L89.6755 28.6458L62.3957 75.8958L35.1159 28.6458Z" stroke="#EFB440"/>
<path d="M575.689 731.058L575.316 811.584L502.219 777.799L575.689 731.058Z" stroke="#EFB440"/>
<path d="M140 373C144.8 307 83 100.5 33 79C-17 57.5 -3 90 -33 90C-70.5 90 -105.5 333.5 -113.5 424C-119.9 496.4 -50.5001 535.167 -15.0001 545.5C34.6665 515.5 135.2 439 140 373Z" fill="#EFB440"/>
</svg>
